<svg xmlns="http://www.w3.org/2000/svg" viewBox="0 0 120.75 120.75"><defs><style>.cls-1{fill:#7776b6;}.cls-2{fill:#fff;}</style></defs><g id="Layer_2" data-name="Layer 2"><g id="Layer_1-2" data-name="Layer 1"><circle class="cls-1" cx="60.38" cy="60.38" r="60.38"/><g id="magic-trick"><circle class="cls-2" cx="81.5" cy="25.39" r="1.33"/><circle class="cls-2" cx="97.12" cy="37.09" r="1.33"/><circle class="cls-2" cx="83.26" cy="77.13" r="1.33"/><path class="cls-2" d="M67.8,60.49l-.43-.25L95.1,32.51a1.35,1.35,0,0,0,0-1.88l-3.89-3.88a1.32,1.32,0,0,0-1.87,0l-26,26a4.46,4.46,0,0,0-1.6-.38l-5.57,0a6.51,6.51,0,0,0-4.71,1.93l-.07.07a3.83,3.83,0,0,0-2-1.53,4.29,4.29,0,0,0-1.57-.2A4,4,0,0,0,45,54.05a4.79,4.79,0,0,0-.48.75A5,5,0,0,0,43,54.5a4.39,4.39,0,0,0-2.81.86A4.54,4.54,0,0,0,39,56.84a4.12,4.12,0,0,0-1.94-.3,4.41,4.41,0,0,0-4,4.22V73.55a16.48,16.48,0,0,0,2.76,8.65,20.69,20.69,0,0,0,2.52,3.27v3.84a1.3,1.3,0,0,0,.39.94,1.34,1.34,0,0,0,.94.4h15.7a1.32,1.32,0,0,0,1.33-1.33v-4l12.47-18,0,0A5,5,0,0,0,67.8,60.49ZM80.67,39.18l2,2L66.24,57.61s0-.1,0-.15a4.75,4.75,0,0,0-.83-3.05Zm9.61-9.61,2,2L84.55,39.3l-2-2ZM67,65.87,54.27,84.17a1.34,1.34,0,0,0-.24.75V88H41V84.93a1.33,1.33,0,0,0-.48-1c-.18-.18-4.8-4.78-4.8-10.36V60.77a1.73,1.73,0,0,1,1.49-1.58,1.69,1.69,0,0,1,1.25.42v2.84a1.33,1.33,0,0,0,1.33,1.33h0a1.34,1.34,0,0,0,1.33-1.33v-3.4a4.52,4.52,0,0,1,.21-1,2,2,0,0,1,.56-.63,1.76,1.76,0,0,1,1-.26,2.6,2.6,0,0,1,1.16.35v4.94a1.33,1.33,0,0,0,1.33,1.33h0a1.33,1.33,0,0,0,1.33-1.32V56.51a1.5,1.5,0,0,1,1-1.22,1.28,1.28,0,0,1,1.48.5,4.89,4.89,0,0,1,.32,2.34v4.49A1.34,1.34,0,0,0,50.87,64h0a1.33,1.33,0,0,0,1.33-1.33V58.93a3.92,3.92,0,0,1,1.17-2.81A4,4,0,0,1,56.2,55l5.51,0a2.14,2.14,0,0,1,1.9,2.27,2.24,2.24,0,0,1-2.45,2H58.8a3,3,0,0,0-3,3V69a1.33,1.33,0,0,0,2.39.81L63.3,63a2.48,2.48,0,0,1,3-.33A2.34,2.34,0,0,1,67,65.87Zm-6.11-4L58.46,65V62.2a.34.34,0,0,1,.34-.33Z"/><path class="cls-2" d="M64,31.57l3.76,2.06,2,3.76a1.33,1.33,0,0,0,2.33,0l2.06-3.76L78,31.57a1.33,1.33,0,0,0,0-2.33l-3.76-2.06-2.06-3.75a1.32,1.32,0,0,0-2.33,0l-2,3.75L64,29.24a1.33,1.33,0,0,0,0,2.33Zm5.37-2.24a1.29,1.29,0,0,0,.53-.53l1.08-2,1.07,2a1.42,1.42,0,0,0,.53.53l2,1.08-2,1.07a1.5,1.5,0,0,0-.53.53L71,34l-1.08-2a1.35,1.35,0,0,0-.53-.53l-2-1.07Z"/><path class="cls-2" d="M93.82,56.4V44.53a1.33,1.33,0,0,0-2.66,0V56.39H87.37a6.19,6.19,0,0,0-6.18,6.19,6.32,6.32,0,0,0,12.63,0V59.06a3.53,3.53,0,0,1,3.33,3.52v9.7a3.53,3.53,0,0,1-3.52,3.53H89.18a1.33,1.33,0,1,0,0,2.65h4.45a6.18,6.18,0,0,0,6.18-6.18v-9.7a6.19,6.19,0,0,0-6-6.18Zm-2.66,6.18a3.66,3.66,0,0,1-7.31,0,3.53,3.53,0,0,1,3.52-3.53h3.79Z"/></g></g></g></svg>